<?xml version="1.0" encoding="UTF-8" standalone="no"?>
<!DOCTYPE svg PUBLIC "-//W3C//DTD SVG 1.1//EN"
 "http://www.w3.org/Graphics/SVG/1.1/DTD/svg11.dtd">
<!-- Generated by graphviz version 2.40.1 (20161225.0304)
 -->
<!-- Title: models_diagram Pages: 1 -->
<svg width="544pt" height="631pt"
 viewBox="0.00 0.00 544.29 630.79" xmlns="http://www.w3.org/2000/svg" xmlns:xlink="http://www.w3.org/1999/xlink">
<g id="graph0" class="graph" transform="scale(1 1) rotate(0) translate(36 594.7859)">
<title>models_diagram</title>
<polygon fill="#ffffff" stroke="transparent" points="-36,36 -36,-594.7859 508.2859,-594.7859 508.2859,36 -36,36"/>
<!-- User -->
<g id="node1" class="node">
<title>User</title>
<polygon fill="#add8e6" stroke="transparent" points="181.393,-198 181.393,-220 283.393,-220 283.393,-198 181.393,-198"/>
<polygon fill="none" stroke="#000000" points="181.393,-198 181.393,-220 283.393,-220 283.393,-198 181.393,-198"/>
<text text-anchor="start" x="222.955" y="-207" font-family="Times,serif" font-weight="bold" font-size="10.00" fill="#000000">User</text>
<polygon fill="none" stroke="#000000" points="181.393,-176 181.393,-198 283.393,-198 283.393,-176 181.393,-176"/>
<text text-anchor="start" x="186.393" y="-185" font-family="Times,serif" text-decoration="underline" font-size="10.00" fill="#000000">id</text>
<text text-anchor="start" x="194.172" y="-185" font-family="Times,serif" font-size="10.00" fill="#000000">: NUMBER</text>
<polygon fill="none" stroke="#000000" points="181.393,-154 181.393,-176 283.393,-176 283.393,-154 181.393,-154"/>
<text text-anchor="start" x="186.393" y="-162" font-family="Times,serif" font-size="10.00" fill="#000000">firstName: STRING</text>
<polygon fill="none" stroke="#000000" points="181.393,-132 181.393,-154 283.393,-154 283.393,-132 181.393,-132"/>
<text text-anchor="start" x="186.393" y="-140" font-family="Times,serif" font-size="10.00" fill="#000000">lastName: STRING</text>
<polygon fill="none" stroke="#000000" points="181.393,-110 181.393,-132 283.393,-132 283.393,-110 181.393,-110"/>
<text text-anchor="start" x="186.393" y="-118" font-family="Times,serif" font-size="10.00" fill="#000000">email: STRING</text>
<polygon fill="none" stroke="#000000" points="181.393,-88 181.393,-110 283.393,-110 283.393,-88 181.393,-88"/>
<text text-anchor="start" x="186.393" y="-96" font-family="Times,serif" font-size="10.00" fill="#000000">password: STRING</text>
<polygon fill="none" stroke="#000000" points="181.393,-66 181.393,-88 283.393,-88 283.393,-66 181.393,-66"/>
<text text-anchor="start" x="186.155" y="-74" font-family="Times,serif" font-size="10.00" fill="#000000">isEnabled: BOOLEAN</text>
<polygon fill="none" stroke="#000000" points="181.393,-44 181.393,-66 283.393,-66 283.393,-44 181.393,-44"/>
<text text-anchor="start" x="186.393" y="-52" font-family="Times,serif" font-size="10.00" fill="#000000">isAdmin: BOOLEAN</text>
<polygon fill="none" stroke="#000000" points="181.393,-22 181.393,-44 283.393,-44 283.393,-22 181.393,-22"/>
<text text-anchor="start" x="186.393" y="-30" font-family="Times,serif" font-size="10.00" fill="#000000">createdAt: DATE</text>
<polygon fill="none" stroke="#000000" points="181.393,0 181.393,-22 283.393,-22 283.393,0 181.393,0"/>
<text text-anchor="start" x="186.393" y="-8" font-family="Times,serif" font-size="10.00" fill="#000000">updatedAt: DATE</text>
</g>
<!-- Student -->
<g id="node2" class="node">
<title>Student</title>
<polygon fill="#add8e6" stroke="transparent" points=".5,-339.893 .5,-361.893 93.5,-361.893 93.5,-339.893 .5,-339.893"/>
<polygon fill="none" stroke="#000000" points=".5,-339.893 .5,-361.893 93.5,-361.893 93.5,-339.893 .5,-339.893"/>
<text text-anchor="start" x="31.722" y="-348.893" font-family="Times,serif" font-weight="bold" font-size="10.00" fill="#000000">Student</text>
<polygon fill="none" stroke="#000000" points=".5,-317.893 .5,-339.893 93.5,-339.893 93.5,-317.893 .5,-317.893"/>
<text text-anchor="start" x="5.5" y="-326.893" font-family="Times,serif" text-decoration="underline" font-size="10.00" fill="#000000">id</text>
<text text-anchor="start" x="13.279" y="-326.893" font-family="Times,serif" font-size="10.00" fill="#000000">: NUMBER</text>
<polygon fill="none" stroke="#000000" points=".5,-295.893 .5,-317.893 93.5,-317.893 93.5,-295.893 .5,-295.893"/>
<text text-anchor="start" x="5.4825" y="-303.893" font-family="Times,serif" font-size="10.00" fill="#000000">semester: NUMBER</text>
<polygon fill="none" stroke="#000000" points=".5,-273.893 .5,-295.893 93.5,-295.893 93.5,-273.893 .5,-273.893"/>
<text text-anchor="start" x="5.5" y="-281.893" font-family="Times,serif" font-size="10.00" fill="#000000">createdAt: DATE</text>
<polygon fill="none" stroke="#000000" points=".5,-251.893 .5,-273.893 93.5,-273.893 93.5,-251.893 .5,-251.893"/>
<text text-anchor="start" x="5.5" y="-259.893" font-family="Times,serif" font-size="10.00" fill="#000000">updatedAt: DATE</text>
<polygon fill="none" stroke="#000000" points=".5,-229.893 .5,-251.893 93.5,-251.893 93.5,-229.893 .5,-229.893"/>
<text text-anchor="start" x="5.5" y="-238.893" font-family="Times,serif" font-style="italic" text-decoration="underline" font-size="10.00" fill="#000000">UserId</text>
<text text-anchor="start" x="32.705" y="-238.893" font-family="Times,serif" font-size="10.00" fill="#000000">: NUMBER</text>
</g>
<!-- Student&#45;&gt;User -->
<g id="edge3" class="edge">
<title>Student&#45;&gt;User</title>
<path fill="none" stroke="#000000" stroke-width=".75" d="M93.4086,-248.9843C120.1904,-222.2026 153.7946,-188.5984 181.251,-161.1419"/>
</g>
<!-- Incidence -->
<g id="node4" class="node">
<title>Incidence</title>
<polygon fill="#add8e6" stroke="transparent" points="184.393,-536.7859 184.393,-558.7859 280.393,-558.7859 280.393,-536.7859 184.393,-536.7859"/>
<polygon fill="none" stroke="#000000" points="184.393,-536.7859 184.393,-558.7859 280.393,-558.7859 280.393,-536.7859 184.393,-536.7859"/>
<text text-anchor="start" x="212.961" y="-545.7859" font-family="Times,serif" font-weight="bold" font-size="10.00" fill="#000000">Incidence</text>
<polygon fill="none" stroke="#000000" points="184.393,-514.7859 184.393,-536.7859 280.393,-536.7859 280.393,-514.7859 184.393,-514.7859"/>
<text text-anchor="start" x="188.924" y="-523.7859" font-family="Times,serif" text-decoration="underline" font-size="10.00" fill="#000000">StudentId</text>
<text text-anchor="start" x="227.809" y="-523.7859" font-family="Times,serif" font-size="10.00" fill="#000000">: NUMBER</text>
<polygon fill="none" stroke="#000000" points="184.393,-492.7859 184.393,-514.7859 280.393,-514.7859 280.393,-492.7859 184.393,-492.7859"/>
<text text-anchor="start" x="189.393" y="-501.7859" font-family="Times,serif" text-decoration="underline" font-size="10.00" fill="#000000">GuardId</text>
<text text-anchor="start" x="222.709" y="-501.7859" font-family="Times,serif" font-size="10.00" fill="#000000">: NUMBER</text>
<polygon fill="none" stroke="#000000" points="184.393,-470.7859 184.393,-492.7859 280.393,-492.7859 280.393,-470.7859 184.393,-470.7859"/>
<text text-anchor="start" x="189.393" y="-478.7859" font-family="Times,serif" font-size="10.00" fill="#000000">latitude: STRING</text>
<polygon fill="none" stroke="#000000" points="184.393,-448.7859 184.393,-470.7859 280.393,-470.7859 280.393,-448.7859 184.393,-448.7859"/>
<text text-anchor="start" x="189.393" y="-456.7859" font-family="Times,serif" font-size="10.00" fill="#000000">longitude: STRING</text>
<polygon fill="none" stroke="#000000" points="184.393,-426.7859 184.393,-448.7859 280.393,-448.7859 280.393,-426.7859 184.393,-426.7859"/>
<text text-anchor="start" x="189.393" y="-434.7859" font-family="Times,serif" font-size="10.00" fill="#000000">createdAt: DATE</text>
<polygon fill="none" stroke="#000000" points="184.393,-404.7859 184.393,-426.7859 280.393,-426.7859 280.393,-404.7859 184.393,-404.7859"/>
<text text-anchor="start" x="189.393" y="-412.7859" font-family="Times,serif" font-size="10.00" fill="#000000">updatedAt: DATE</text>
</g>
<!-- Student&#45;&gt;Incidence -->
<g id="edge1" class="edge">
<title>Student&#45;&gt;Incidence</title>
<path fill="none" stroke="#000000" stroke-width=".75" d="M93.4086,-342.8016C119.7492,-369.1422 152.6894,-402.0823 179.8893,-429.2823"/>
<polygon fill="#000000" stroke="#000000" stroke-width=".75" points="179.9609,-429.3538 182.2943,-435.5057 182.0822,-431.4752 184.2035,-433.5965 184.2035,-433.5965 184.2035,-433.5965 182.0822,-431.4752 186.1127,-431.6873 179.9609,-429.3538 179.9609,-429.3538"/>
</g>
<!-- Guard -->
<g id="node3" class="node">
<title>Guard</title>
<polygon fill="#add8e6" stroke="transparent" points="364.2859,-339.893 364.2859,-361.893 472.2859,-361.893 472.2859,-339.893 364.2859,-339.893"/>
<polygon fill="none" stroke="#000000" points="364.2859,-339.893 364.2859,-361.893 472.2859,-361.893 472.2859,-339.893 364.2859,-339.893"/>
<text text-anchor="start" x="405.7924" y="-348.893" font-family="Times,serif" font-weight="bold" font-size="10.00" fill="#000000">Guard</text>
<polygon fill="none" stroke="#000000" points="364.2859,-317.893 364.2859,-339.893 472.2859,-339.893 472.2859,-317.893 364.2859,-317.893"/>
<text text-anchor="start" x="369.2859" y="-326.893" font-family="Times,serif" text-decoration="underline" font-size="10.00" fill="#000000">id</text>
<text text-anchor="start" x="377.0649" y="-326.893" font-family="Times,serif" font-size="10.00" fill="#000000">: NUMBER</text>
<polygon fill="none" stroke="#000000" points="364.2859,-295.893 364.2859,-317.893 472.2859,-317.893 472.2859,-295.893 364.2859,-295.893"/>
<text text-anchor="start" x="368.9824" y="-303.893" font-family="Times,serif" font-size="10.00" fill="#000000">pushSubscription: JSON</text>
<polygon fill="none" stroke="#000000" points="364.2859,-273.893 364.2859,-295.893 472.2859,-295.893 472.2859,-273.893 364.2859,-273.893"/>
<text text-anchor="start" x="369.2859" y="-281.893" font-family="Times,serif" font-size="10.00" fill="#000000">createdAt: DATE</text>
<polygon fill="none" stroke="#000000" points="364.2859,-251.893 364.2859,-273.893 472.2859,-273.893 472.2859,-251.893 364.2859,-251.893"/>
<text text-anchor="start" x="369.2859" y="-259.893" font-family="Times,serif" font-size="10.00" fill="#000000">updatedAt: DATE</text>
<polygon fill="none" stroke="#000000" points="364.2859,-229.893 364.2859,-251.893 472.2859,-251.893 472.2859,-229.893 364.2859,-229.893"/>
<text text-anchor="start" x="369.2859" y="-238.893" font-family="Times,serif" font-style="italic" text-decoration="underline" font-size="10.00" fill="#000000">UserId</text>
<text text-anchor="start" x="396.4909" y="-238.893" font-family="Times,serif" font-size="10.00" fill="#000000">: NUMBER</text>
</g>
<!-- Guard&#45;&gt;User -->
<g id="edge4" class="edge">
<title>Guard&#45;&gt;User</title>
<path fill="none" stroke="#000000" stroke-width=".75" d="M364.0183,-241.6253C338.62,-216.227 308.5319,-186.1389 283.5378,-161.1448"/>
</g>
<!-- Guard&#45;&gt;Incidence -->
<g id="edge2" class="edge">
<title>Guard&#45;&gt;Incidence</title>
<path fill="none" stroke="#000000" stroke-width=".75" d="M364.0183,-350.1606C338.9959,-375.183 309.4215,-404.7574 284.6509,-429.528"/>
<polygon fill="#000000" stroke="#000000" stroke-width=".75" points="284.6446,-429.5343 278.4927,-431.8678 282.5233,-431.6557 280.4019,-433.777 280.4019,-433.777 280.4019,-433.777 282.5233,-431.6557 282.3111,-435.6862 284.6446,-429.5343 284.6446,-429.5343"/>
</g>
</g>
</svg>
